<svg width="75" height="79" viewBox="0 0 75 79" fill="none" xmlns="http://www.w3.org/2000/svg">
<path fill-rule="evenodd" clip-rule="evenodd" d="M36.5175 13.9357H8.77824C3.92826 13.9357 0 18.1009 0 23.2318V69.7039C0 74.8391 3.92826 79 8.77824 79H57.0586C61.9086 79 65.8368 74.8391 65.8368 69.7039V35.6882L48.6578 53.8767C47.1576 55.4809 45.2039 56.5894 43.0573 57.0544L31.2901 59.5474C23.6091 61.1714 16.8411 54.004 18.3773 45.8753L20.7298 33.4146C21.1556 31.1674 22.2002 29.1001 23.732 27.4805L36.5175 13.9357Z" fill="#153243"/>
<path fill-rule="evenodd" clip-rule="evenodd" d="M73.9392 5.78066C73.4954 4.65718 72.8448 3.62693 72.0211 2.74339C71.2112 1.87929 70.2348 1.18804 69.1506 0.711223C68.0826 0.242185 66.9288 0 65.7622 0C64.5957 0 63.4419 0.242185 62.3739 0.711223C61.2897 1.18804 60.3133 1.87929 59.5034 2.74339L57.1069 5.2803L69.6247 18.5354L72.0211 15.9941C72.8535 15.1173 73.5052 14.0853 73.9392 12.9569C74.8434 10.6502 74.8434 8.08729 73.9392 5.78066ZM63.4229 25.106L50.9007 11.8464L29.9338 34.0554C29.6245 34.385 29.4159 34.7962 29.3325 35.2404L26.98 47.7056C26.6727 49.3295 28.029 50.7604 29.5608 50.4356L41.3324 47.947C41.7607 47.8515 42.1506 47.6298 42.4516 47.3105L63.4229 25.106Z" fill="#153243"/>
</svg>
