<svg width="80" height="84" viewBox="0 0 80 84" fill="none" xmlns="http://www.w3.org/2000/svg">
<path fill-rule="evenodd" clip-rule="evenodd" d="M13 0.333313C9.68479 0.333313 6.50537 1.65027 4.16117 3.99448C1.81696 6.33868 0.5 9.51811 0.5 12.8333V71.1667C0.5 74.4819 1.81696 77.6613 4.16117 80.0055C6.50537 82.3497 9.68479 83.6667 13 83.6667H38C41.3152 83.6667 44.4946 82.3497 46.8388 80.0055C49.183 77.6613 50.5 74.4819 50.5 71.1667V12.8333C50.5 9.51811 49.183 6.33868 46.8388 3.99448C44.4946 1.65027 41.3152 0.333313 38 0.333313H13ZM55.8875 22.3875C56.6689 21.6064 57.7285 21.1675 58.8333 21.1675C59.9382 21.1675 60.9978 21.6064 61.7792 22.3875L78.4458 39.0542C79.227 39.8355 79.6658 40.8951 79.6658 42C79.6658 43.1048 79.227 44.1645 78.4458 44.9458L61.7792 61.6125C60.9933 62.3715 59.9408 62.7915 58.8483 62.782C57.7558 62.7725 56.7108 62.3343 55.9383 61.5617C55.1657 60.7892 54.7275 59.7441 54.718 58.6517C54.7085 57.5592 55.1285 56.5067 55.8875 55.7208L65.4417 46.1666H29.6667C28.5616 46.1666 27.5018 45.7277 26.7204 44.9463C25.939 44.1649 25.5 43.1051 25.5 42C25.5 40.8949 25.939 39.8351 26.7204 39.0537C27.5018 38.2723 28.5616 37.8333 29.6667 37.8333H65.4417L55.8875 28.2791C55.1064 27.4978 54.6676 26.4382 54.6676 25.3333C54.6676 24.2285 55.1064 23.1688 55.8875 22.3875Z" fill="#153243"/>
</svg>
