<svg width="194" height="32" viewBox="0 0 194 32" fill="none" xmlns="http://www.w3.org/2000/svg">
<path d="M12.8643 32C8.8754 32 5.72414 30.6366 3.41055 27.9098C1.13685 25.183 0 21.213 0 16C0 10.7469 1.13685 6.77694 3.41055 4.09023C5.72414 1.36341 8.8754 0 12.8643 0C16.8533 0 19.9846 1.36341 22.2583 4.09023C24.5719 6.77694 25.7287 10.7469 25.7287 16C25.7287 21.213 24.5719 25.183 22.2583 27.9098C19.9846 30.6366 16.8533 32 12.8643 32ZM12.8643 30.1353C16.255 30.1353 18.8677 29.0326 20.7026 26.8271C22.5375 24.5815 23.455 21.5138 23.455 17.6241V14.3759C23.455 10.4461 22.5375 7.37845 20.7026 5.17293C18.8677 2.96742 16.255 1.86466 12.8643 1.86466C9.47375 1.86466 6.86099 2.96742 5.02607 5.17293C3.19116 7.37845 2.2737 10.4461 2.2737 14.3759V17.6241C2.2737 21.5138 3.19116 24.5815 5.02607 26.8271C6.86099 29.0326 9.47375 30.1353 12.8643 30.1353Z" fill="#153243"/>
<path d="M19.6822 32C15.6932 32 12.542 30.6366 10.2284 27.9098C7.95467 25.183 6.81783 21.213 6.81783 16C6.81783 10.7469 7.95467 6.77694 10.2284 4.09023C12.542 1.36341 15.6932 0 19.6822 0C23.6711 0 26.8024 1.36341 29.0761 4.09023C31.3897 6.77694 32.5465 10.7469 32.5465 16C32.5465 21.213 31.3897 25.183 29.0761 27.9098C26.8024 30.6366 23.6711 32 19.6822 32ZM19.6822 30.1353C23.0728 30.1353 25.6855 29.0326 27.5205 26.8271C29.3554 24.5815 30.2728 21.5138 30.2728 17.6241V14.3759C30.2728 10.4461 29.3554 7.37845 27.5205 5.17293C25.6855 2.96742 23.0728 1.86466 19.6822 1.86466C16.2916 1.86466 13.6788 2.96742 11.8439 5.17293C10.009 7.37845 9.09152 10.4461 9.09152 14.3759V17.6241C9.09152 21.5138 10.009 24.5815 11.8439 26.8271C13.6788 29.0326 16.2916 30.1353 19.6822 30.1353Z" fill="#153243"/>
<path d="M26.5 32C22.5111 32 19.3598 30.6366 17.0462 27.9098C14.7725 25.183 13.6357 21.213 13.6357 16C13.6357 10.7469 14.7725 6.77694 17.0462 4.09023C19.3598 1.36341 22.5111 0 26.5 0C30.4889 0 33.6203 1.36341 35.894 4.09023C38.2076 6.77694 39.3643 10.7469 39.3643 16C39.3643 21.213 38.2076 25.183 35.894 27.9098C33.6203 30.6366 30.4889 32 26.5 32ZM26.5 30.1353C29.8906 30.1353 32.5034 29.0326 34.3383 26.8271C36.1732 24.5815 37.0907 21.5138 37.0907 17.6241V14.3759C37.0907 10.4461 36.1732 7.37845 34.3383 5.17293C32.5034 2.96742 29.8906 1.86466 26.5 1.86466C23.1094 1.86466 20.4966 2.96742 18.6617 5.17293C16.8268 7.37845 15.9093 10.4461 15.9093 14.3759V17.6241C15.9093 21.5138 16.8268 24.5815 18.6617 26.8271C20.4966 29.0326 23.1094 30.1353 26.5 30.1353Z" fill="#153243"/>
<path d="M33.3178 32C29.3289 32 26.1776 30.6366 23.864 27.9098C21.5903 25.183 20.4535 21.213 20.4535 16C20.4535 10.7469 21.5903 6.77694 23.864 4.09023C26.1776 1.36341 29.3289 0 33.3178 0C37.3068 0 40.4381 1.36341 42.7118 4.09023C45.0254 6.77694 46.1822 10.7469 46.1822 16C46.1822 21.213 45.0254 25.183 42.7118 27.9098C40.4381 30.6366 37.3068 32 33.3178 32ZM33.3178 30.1353C36.7084 30.1353 39.3212 29.0326 41.1561 26.8271C42.991 24.5815 43.9085 21.5138 43.9085 17.6241V14.3759C43.9085 10.4461 42.991 7.37845 41.1561 5.17293C39.3212 2.96742 36.7084 1.86466 33.3178 1.86466C29.9272 1.86466 27.3145 2.96742 25.4795 5.17293C23.6446 7.37845 22.7272 10.4461 22.7272 14.3759V17.6241C22.7272 21.5138 23.6446 24.5815 25.4795 26.8271C27.3145 29.0326 29.9272 30.1353 33.3178 30.1353Z" fill="#153243"/>
<path d="M40.1357 32C36.1467 32 32.9954 30.6366 30.6818 27.9098C28.4081 25.183 27.2713 21.213 27.2713 16C27.2713 10.7469 28.4081 6.77694 30.6818 4.09023C32.9954 1.36341 36.1467 0 40.1357 0C44.1246 0 47.2559 1.36341 49.5296 4.09023C51.8432 6.77694 53 10.7469 53 16C53 21.213 51.8432 25.183 49.5296 27.9098C47.2559 30.6366 44.1246 32 40.1357 32ZM40.1357 30.1353C43.5263 30.1353 46.139 29.0326 47.9739 26.8271C49.8088 24.5815 50.7263 21.5138 50.7263 17.6241V14.3759C50.7263 10.4461 49.8088 7.37845 47.9739 5.17293C46.139 2.96742 43.5263 1.86466 40.1357 1.86466C36.745 1.86466 34.1323 2.96742 32.2974 5.17293C30.4625 7.37845 29.545 10.4461 29.545 14.3759V17.6241C29.545 21.5138 30.4625 24.5815 32.2974 26.8271C34.1323 29.0326 36.745 30.1353 40.1357 30.1353Z" fill="#153243"/>
<path d="M74.48 22.336H74.36C74.232 23.184 73.8 23.888 73.064 24.448C72.328 25.008 71.328 25.288 70.064 25.288C69.104 25.288 68.208 25.104 67.376 24.736C66.544 24.368 65.816 23.824 65.192 23.104C64.568 22.384 64.08 21.488 63.728 20.416C63.376 19.344 63.2 18.104 63.2 16.696C63.2 15.288 63.384 14.04 63.752 12.952C64.12 11.864 64.632 10.952 65.288 10.216C65.96 9.48 66.76 8.92 67.688 8.536C68.616 8.152 69.648 7.96 70.784 7.96C72.288 7.96 73.584 8.288 74.672 8.944C75.76 9.584 76.616 10.552 77.24 11.848L74.264 13.552C74.008 12.896 73.608 12.344 73.064 11.896C72.52 11.432 71.76 11.2 70.784 11.2C69.648 11.2 68.744 11.528 68.072 12.184C67.4 12.84 67.064 13.872 67.064 15.28V17.968C67.064 19.36 67.4 20.392 68.072 21.064C68.744 21.72 69.648 22.048 70.784 22.048C71.232 22.048 71.656 22 72.056 21.904C72.456 21.792 72.808 21.632 73.112 21.424C73.416 21.2 73.648 20.936 73.808 20.632C73.984 20.328 74.072 19.968 74.072 19.552V18.712H70.952V15.664H77.552V25H74.48V22.336ZM80.906 25V12.4H84.458V15.136H84.578C84.642 14.784 84.754 14.448 84.914 14.128C85.074 13.792 85.282 13.496 85.538 13.24C85.81 12.984 86.13 12.784 86.498 12.64C86.866 12.48 87.298 12.4 87.794 12.4H88.418V15.712H87.53C86.49 15.712 85.714 15.848 85.202 16.12C84.706 16.392 84.458 16.896 84.458 17.632V25H80.906ZM95.6039 25.288C94.6759 25.288 93.8439 25.136 93.1079 24.832C92.3879 24.528 91.7719 24.088 91.2599 23.512C90.7639 22.936 90.3799 22.24 90.1079 21.424C89.8359 20.608 89.6999 19.696 89.6999 18.688C89.6999 17.68 89.8359 16.768 90.1079 15.952C90.3799 15.136 90.7639 14.448 91.2599 13.888C91.7719 13.312 92.3879 12.872 93.1079 12.568C93.8439 12.264 94.6759 12.112 95.6039 12.112C96.5319 12.112 97.3559 12.264 98.0759 12.568C98.8119 12.872 99.4279 13.312 99.9239 13.888C100.436 14.448 100.828 15.136 101.1 15.952C101.372 16.768 101.508 17.68 101.508 18.688C101.508 19.696 101.372 20.608 101.1 21.424C100.828 22.24 100.436 22.936 99.9239 23.512C99.4279 24.088 98.8119 24.528 98.0759 24.832C97.3559 25.136 96.5319 25.288 95.6039 25.288ZM95.6039 22.48C96.3079 22.48 96.8519 22.264 97.2359 21.832C97.6199 21.4 97.8119 20.784 97.8119 19.984V17.416C97.8119 16.616 97.6199 16 97.2359 15.568C96.8519 15.136 96.3079 14.92 95.6039 14.92C94.8999 14.92 94.3559 15.136 93.9719 15.568C93.5879 16 93.3959 16.616 93.3959 17.416V19.984C93.3959 20.784 93.5879 21.4 93.9719 21.832C94.3559 22.264 94.8999 22.48 95.6039 22.48ZM109.151 25.288C108.223 25.288 107.391 25.136 106.655 24.832C105.935 24.528 105.319 24.088 104.807 23.512C104.311 22.936 103.927 22.24 103.655 21.424C103.383 20.608 103.247 19.696 103.247 18.688C103.247 17.68 103.383 16.768 103.655 15.952C103.927 15.136 104.311 14.448 104.807 13.888C105.319 13.312 105.935 12.872 106.655 12.568C107.391 12.264 108.223 12.112 109.151 12.112C110.079 12.112 110.903 12.264 111.623 12.568C112.359 12.872 112.975 13.312 113.471 13.888C113.983 14.448 114.375 15.136 114.647 15.952C114.919 16.768 115.055 17.68 115.055 18.688C115.055 19.696 114.919 20.608 114.647 21.424C114.375 22.24 113.983 22.936 113.471 23.512C112.975 24.088 112.359 24.528 111.623 24.832C110.903 25.136 110.079 25.288 109.151 25.288ZM109.151 22.48C109.855 22.48 110.399 22.264 110.783 21.832C111.167 21.4 111.359 20.784 111.359 19.984V17.416C111.359 16.616 111.167 16 110.783 15.568C110.399 15.136 109.855 14.92 109.151 14.92C108.447 14.92 107.903 15.136 107.519 15.568C107.135 16 106.943 16.616 106.943 17.416V19.984C106.943 20.784 107.135 21.4 107.519 21.832C107.903 22.264 108.447 22.48 109.151 22.48ZM120.086 25L115.958 12.4H119.462L121.022 17.488L122.198 22.048H122.39L123.566 17.488L125.078 12.4H128.438L124.31 25H120.086ZM135.381 25.288C134.421 25.288 133.565 25.136 132.813 24.832C132.061 24.512 131.421 24.072 130.893 23.512C130.381 22.936 129.989 22.24 129.717 21.424C129.461 20.608 129.333 19.696 129.333 18.688C129.333 17.696 129.461 16.8 129.717 16C129.973 15.184 130.349 14.488 130.845 13.912C131.357 13.336 131.981 12.896 132.717 12.592C133.453 12.272 134.293 12.112 135.237 12.112C136.277 12.112 137.165 12.288 137.901 12.64C138.653 12.992 139.261 13.464 139.725 14.056C140.205 14.648 140.549 15.336 140.757 16.12C140.981 16.888 141.093 17.696 141.093 18.544V19.6H133.005V19.792C133.005 20.624 133.229 21.288 133.677 21.784C134.125 22.264 134.829 22.504 135.789 22.504C136.525 22.504 137.125 22.36 137.589 22.072C138.053 21.768 138.485 21.408 138.885 20.992L140.661 23.2C140.101 23.856 139.365 24.368 138.453 24.736C137.557 25.104 136.533 25.288 135.381 25.288ZM135.309 14.728C134.589 14.728 134.021 14.968 133.605 15.448C133.205 15.912 133.005 16.536 133.005 17.32V17.512H137.421V17.296C137.421 16.528 137.245 15.912 136.893 15.448C136.557 14.968 136.029 14.728 135.309 14.728ZM148.569 25.288C147.865 25.288 147.233 25.216 146.673 25.072C146.129 24.944 145.625 24.76 145.161 24.52C144.713 24.28 144.305 23.992 143.937 23.656C143.585 23.32 143.257 22.952 142.953 22.552L143.385 22.24C143.673 22.624 143.985 22.976 144.321 23.296C144.657 23.6 145.033 23.872 145.449 24.112C145.865 24.336 146.329 24.512 146.841 24.64C147.353 24.752 147.929 24.808 148.569 24.808C150.025 24.808 151.153 24.472 151.953 23.8C152.753 23.112 153.153 22.104 153.153 20.776C153.153 20.072 153.041 19.488 152.817 19.024C152.609 18.56 152.329 18.184 151.977 17.896C151.625 17.592 151.209 17.36 150.729 17.2C150.265 17.04 149.785 16.912 149.289 16.816L147.609 16.504C146.761 16.344 146.065 16.128 145.521 15.856C144.977 15.568 144.537 15.232 144.201 14.848C143.881 14.464 143.657 14.048 143.529 13.6C143.401 13.152 143.337 12.68 143.337 12.184C143.337 10.76 143.801 9.704 144.729 9.016C145.657 8.312 146.897 7.96 148.449 7.96C149.697 7.96 150.713 8.176 151.497 8.608C152.297 9.024 152.929 9.568 153.393 10.24L152.961 10.552C152.481 9.848 151.873 9.32 151.137 8.968C150.401 8.616 149.489 8.44 148.401 8.44C146.977 8.44 145.865 8.752 145.065 9.376C144.265 9.984 143.865 10.92 143.865 12.184C143.865 12.84 143.969 13.392 144.177 13.84C144.385 14.272 144.665 14.632 145.017 14.92C145.385 15.208 145.801 15.44 146.265 15.616C146.729 15.776 147.225 15.904 147.753 16L149.433 16.312C150.297 16.472 151.001 16.704 151.545 17.008C152.089 17.296 152.521 17.64 152.841 18.04C153.161 18.424 153.377 18.848 153.489 19.312C153.617 19.76 153.681 20.232 153.681 20.728C153.681 22.248 153.217 23.392 152.289 24.16C151.377 24.912 150.137 25.288 148.569 25.288ZM164.814 12.856H165.318L159.198 29.344C159.086 29.648 158.838 29.8 158.454 29.8H156.438V29.344H158.67L160.254 25.168L155.67 12.856H156.198L160.47 24.424H160.542L164.814 12.856ZM168.442 25V12.856H168.946V14.68H169.018C169.226 14.136 169.634 13.648 170.242 13.216C170.866 12.784 171.722 12.568 172.81 12.568C174.17 12.568 175.202 12.96 175.906 13.744C176.626 14.528 176.986 15.68 176.986 17.2V25H176.482V17.296C176.482 15.808 176.162 14.728 175.522 14.056C174.882 13.368 173.962 13.024 172.762 13.024C172.266 13.024 171.786 13.096 171.322 13.24C170.858 13.368 170.45 13.568 170.098 13.84C169.746 14.112 169.466 14.456 169.258 14.872C169.05 15.288 168.946 15.768 168.946 16.312V25H168.442ZM185.738 25.288C184.138 25.288 182.898 24.76 182.018 23.704C181.138 22.632 180.698 21.04 180.698 18.928C180.698 16.816 181.138 15.232 182.018 14.176C182.898 13.104 184.138 12.568 185.738 12.568C186.698 12.568 187.506 12.792 188.162 13.24C188.818 13.672 189.33 14.248 189.698 14.968L189.266 15.184C188.882 14.48 188.41 13.944 187.85 13.576C187.306 13.208 186.602 13.024 185.738 13.024C184.282 13.024 183.17 13.504 182.402 14.464C181.634 15.408 181.25 16.704 181.25 18.352V19.504C181.25 21.152 181.634 22.456 182.402 23.416C183.17 24.36 184.282 24.832 185.738 24.832C186.682 24.832 187.45 24.648 188.042 24.28C188.65 23.912 189.146 23.392 189.53 22.72L189.914 22.984C189.514 23.672 188.978 24.232 188.306 24.664C187.65 25.08 186.794 25.288 185.738 25.288Z" fill="#153243"/>
</svg>
