<svg width="18" height="20" viewBox="0 0 18 20" fill="none" xmlns="http://www.w3.org/2000/svg">
<path d="M18 0.912994V16C17.9997 16.6368 17.7967 17.2569 17.4206 17.7707C17.0444 18.2844 16.5145 18.6652 15.9076 18.8578C15.3007 19.0505 14.6482 19.045 14.0446 18.8422C13.441 18.6394 12.9176 18.2498 12.5501 17.7298C12.1826 17.2098 11.9901 16.5864 12.0004 15.9497C12.0107 15.313 12.2234 14.6961 12.6076 14.1883C12.9918 13.6805 13.5276 13.3082 14.1375 13.1251C14.7473 12.942 15.3997 12.9577 16 13.17V6.08799L6 6.91999V17C5.99967 17.6368 5.79673 18.2569 5.42057 18.7707C5.0444 19.2844 4.51451 19.6652 3.90759 19.8578C3.30067 20.0505 2.64819 20.045 2.04459 19.8422C1.44098 19.6394 0.917555 19.2498 0.550057 18.7298C0.182559 18.2098 -0.0099477 17.5864 0.00039605 16.9497C0.0107398 16.313 0.223397 15.6961 0.607593 15.1883C0.99179 14.6805 1.52759 14.3082 2.13747 14.1251C2.74735 13.942 3.39966 13.9577 4 14.17V2.07999L18 0.912994Z" fill="#EAE8FF"/>
</svg>
