<svg width="100" height="100" viewBox="0 0 100 100" fill="none" xmlns="http://www.w3.org/2000/svg">
<path d="M63.5042 15.5042L64.725 23.9583H81.25C82.0788 23.9583 82.8737 24.2876 83.4597 24.8736C84.0458 25.4597 84.375 26.2545 84.375 27.0833C84.375 27.9121 84.0458 28.707 83.4597 29.293C82.8737 29.8791 82.0788 30.2083 81.25 30.2083H78.0458L74.4083 72.6458C74.1875 75.2292 74.0083 77.3542 73.7208 79.0708C73.4292 80.8583 72.9833 82.4583 72.1125 83.9417C70.7451 86.2714 68.7121 88.1389 66.275 89.3042C64.725 90.0417 63.0917 90.3458 61.2833 90.4875C59.5458 90.625 57.4167 90.625 54.825 90.625H45.175C42.5833 90.625 40.4542 90.625 38.7167 90.4875C36.9083 90.3458 35.275 90.0417 33.725 89.3042C31.2878 88.1389 29.2549 86.2714 27.8875 83.9417C27.0125 82.4583 26.575 80.8583 26.2792 79.0708C25.9917 77.35 25.8125 75.2292 25.5917 72.6458L21.9542 30.2083H18.75C17.9212 30.2083 17.1263 29.8791 16.5403 29.293C15.9542 28.707 15.625 27.9121 15.625 27.0833C15.625 26.2545 15.9542 25.4597 16.5403 24.8736C17.1263 24.2876 17.9212 23.9583 18.75 23.9583H35.275L36.4958 15.5042L36.5417 15.25C37.3 11.9583 40.125 9.375 43.6667 9.375H56.3333C59.875 9.375 62.7 11.9583 63.4583 15.25L63.5042 15.5042ZM41.5875 23.9583H58.4083L57.3417 16.5583C57.1417 15.8625 56.6333 15.625 56.3292 15.625H43.6708C43.3667 15.625 42.8583 15.8625 42.6583 16.5583L41.5875 23.9583ZM46.875 43.75C46.875 42.9212 46.5458 42.1263 45.9597 41.5403C45.3737 40.9542 44.5788 40.625 43.75 40.625C42.9212 40.625 42.1263 40.9542 41.5403 41.5403C40.9542 42.1263 40.625 42.9212 40.625 43.75V64.5833C40.625 65.4121 40.9542 66.207 41.5403 66.793C42.1263 67.3791 42.9212 67.7083 43.75 67.7083C44.5788 67.7083 45.3737 67.3791 45.9597 66.793C46.5458 66.207 46.875 65.4121 46.875 64.5833V43.75ZM59.375 43.75C59.375 42.9212 59.0458 42.1263 58.4597 41.5403C57.8737 40.9542 57.0788 40.625 56.25 40.625C55.4212 40.625 54.6263 40.9542 54.0403 41.5403C53.4542 42.1263 53.125 42.9212 53.125 43.75V64.5833C53.125 65.4121 53.4542 66.207 54.0403 66.793C54.6263 67.3791 55.4212 67.7083 56.25 67.7083C57.0788 67.7083 57.8737 67.3791 58.4597 66.793C59.0458 66.207 59.375 65.4121 59.375 64.5833V43.75Z" fill="#153243"/>
</svg>
