<svg width="132" height="79" viewBox="0 0 132 79" fill="none" xmlns="http://www.w3.org/2000/svg">
<path d="M32.0395 79C22.1048 79 14.2563 75.6341 8.4942 68.9023C2.8314 62.1704 0 52.3697 0 39.5C0 26.5313 2.8314 16.7306 8.4942 10.0977C14.2563 3.36592 22.1048 0 32.0395 0C41.9742 0 49.773 3.36592 55.4358 10.0977C61.198 16.7306 64.079 26.5313 64.079 39.5C64.079 52.3697 61.198 62.1704 55.4358 68.9023C49.773 75.6341 41.9742 79 32.0395 79ZM32.0395 74.3966C40.484 74.3966 46.9913 71.6742 51.5613 66.2293C56.1312 60.6855 58.4162 53.1122 58.4162 43.5094V35.4906C58.4162 25.7889 56.1312 18.2155 51.5613 12.7707C46.9913 7.32582 40.484 4.60339 32.0395 4.60339C23.595 4.60339 17.0877 7.32582 12.5178 12.7707C7.94779 18.2155 5.6628 25.7889 5.6628 35.4906V43.5094C5.6628 53.1122 7.94779 60.6855 12.5178 66.2293C17.0877 71.6742 23.595 74.3966 32.0395 74.3966Z" fill="#EAE8FF"/>
<path d="M49.0198 79C39.085 79 31.2366 75.6341 25.4744 68.9023C19.8116 62.1704 16.9802 52.3697 16.9802 39.5C16.9802 26.5313 19.8116 16.7306 25.4744 10.0977C31.2366 3.36592 39.085 0 49.0198 0C58.9545 0 66.7533 3.36592 72.4161 10.0977C78.1782 16.7306 81.0593 26.5313 81.0593 39.5C81.0593 52.3697 78.1782 62.1704 72.4161 68.9023C66.7533 75.6341 58.9545 79 49.0198 79ZM49.0198 74.3966C57.4643 74.3966 63.9715 71.6742 68.5415 66.2293C73.1115 60.6855 75.3965 53.1122 75.3965 43.5094V35.4906C75.3965 25.7889 73.1115 18.2155 68.5415 12.7707C63.9715 7.32582 57.4643 4.60339 49.0198 4.60339C40.5752 4.60339 34.068 7.32582 29.498 12.7707C24.928 18.2155 22.643 25.7889 22.643 35.4906V43.5094C22.643 53.1122 24.928 60.6855 29.498 66.2293C34.068 71.6742 40.5752 74.3966 49.0198 74.3966Z" fill="#EAE8FF"/>
<path d="M66 79C56.0653 79 48.2168 75.6341 42.4547 68.9023C36.7919 62.1704 33.9605 52.3697 33.9605 39.5C33.9605 26.5313 36.7919 16.7306 42.4547 10.0977C48.2168 3.36592 56.0653 0 66 0C75.9347 0 83.7335 3.36592 89.3963 10.0977C95.1584 16.7306 98.0395 26.5313 98.0395 39.5C98.0395 52.3697 95.1584 62.1704 89.3963 68.9023C83.7335 75.6341 75.9347 79 66 79ZM66 74.3966C74.4445 74.3966 80.9518 71.6742 85.5218 66.2293C90.0917 60.6855 92.3767 53.1122 92.3767 43.5094V35.4906C92.3767 25.7889 90.0917 18.2155 85.5218 12.7707C80.9518 7.32582 74.4445 4.60339 66 4.60339C57.5555 4.60339 51.0482 7.32582 46.4782 12.7707C41.9083 18.2155 39.6233 25.7889 39.6233 35.4906V43.5094C39.6233 53.1122 41.9083 60.6855 46.4782 66.2293C51.0482 71.6742 57.5555 74.3966 66 74.3966Z" fill="#EAE8FF"/>
<path d="M82.9802 79C73.0455 79 65.1971 75.6341 59.4349 68.9023C53.7721 62.1704 50.9407 52.3697 50.9407 39.5C50.9407 26.5313 53.7721 16.7306 59.4349 10.0977C65.1971 3.36592 73.0455 0 82.9802 0C92.915 0 100.714 3.36592 106.377 10.0977C112.139 16.7306 115.02 26.5313 115.02 39.5C115.02 52.3697 112.139 62.1704 106.377 68.9023C100.714 75.6341 92.915 79 82.9802 79ZM82.9802 74.3966C91.4248 74.3966 97.932 71.6742 102.502 66.2293C107.072 60.6855 109.357 53.1122 109.357 43.5094V35.4906C109.357 25.7889 107.072 18.2155 102.502 12.7707C97.932 7.32582 91.4248 4.60339 82.9802 4.60339C74.5357 4.60339 68.0285 7.32582 63.4585 12.7707C58.8885 18.2155 56.6035 25.7889 56.6035 35.4906V43.5094C56.6035 53.1122 58.8885 60.6855 63.4585 66.2293C68.0285 71.6742 74.5357 74.3966 82.9802 74.3966Z" fill="#EAE8FF"/>
<path d="M99.9605 79C90.0258 79 82.1773 75.6341 76.4152 68.9023C70.7524 62.1704 67.921 52.3697 67.921 39.5C67.921 26.5313 70.7524 16.7306 76.4152 10.0977C82.1773 3.36592 90.0258 0 99.9605 0C109.895 0 117.694 3.36592 123.357 10.0977C129.119 16.7306 132 26.5313 132 39.5C132 52.3697 129.119 62.1704 123.357 68.9023C117.694 75.6341 109.895 79 99.9605 79ZM99.9605 74.3966C108.405 74.3966 114.912 71.6742 119.482 66.2293C124.052 60.6855 126.337 53.1122 126.337 43.5094V35.4906C126.337 25.7889 124.052 18.2155 119.482 12.7707C114.912 7.32582 108.405 4.60339 99.9605 4.60339C91.516 4.60339 85.0087 7.32582 80.4387 12.7707C75.8688 18.2155 73.5838 25.7889 73.5838 35.4906V43.5094C73.5838 53.1122 75.8688 60.6855 80.4387 66.2293C85.0087 71.6742 91.516 74.3966 99.9605 74.3966Z" fill="#EAE8FF"/>
</svg>
